# Wavefront OBJ exported by MilkShape 3D

v 0.000000 2.000000 0.000000
v 0.666667 2.000000 0.000000
v 1.333333 2.000000 0.000000
v 2.000000 2.000000 0.000000
v 0.000000 1.600000 0.000000
v 0.666667 1.600000 0.000000
v 1.333333 1.600000 0.000000
v 2.000000 1.600000 0.000000
v 0.000000 1.200000 0.000000
v 0.666667 1.200000 0.000000
v 1.333333 1.200000 0.000000
v 2.000000 1.200000 0.000000
v 0.000000 0.800000 0.000000
v 0.666667 0.800000 0.000000
v 1.333333 0.800000 0.000000
v 2.000000 0.800000 0.000000
v 0.000000 0.400000 0.000000
v 0.666667 0.400000 0.000000
v 1.333333 0.400000 0.000000
v 2.000000 0.400000 0.000000
v 0.000000 -0.000000 0.000000
v 0.666667 -0.000000 0.000000
v 1.333333 -0.000000 0.000000
v 2.000000 -0.000000 0.000000
# 24 vertices

vt 0.000000 1.000000
vt 0.000000 0.800000
vt 0.333333 0.800000
vt 0.333333 1.000000
vt 0.666667 0.800000
vt 0.666667 1.000000
vt 1.000000 0.800000
vt 1.000000 1.000000
vt 0.000000 0.600000
vt 0.333333 0.600000
vt 0.666667 0.600000
vt 1.000000 0.600000
vt 0.000000 0.400000
vt 0.333333 0.400000
vt 0.666667 0.400000
vt 1.000000 0.400000
vt 0.000000 0.200000
vt 0.333333 0.200000
vt 0.666667 0.200000
vt 1.000000 0.200000
vt 0.000000 0.000000
vt 0.333333 0.000000
vt 0.666667 0.000000
vt 1.000000 0.000000
# 24 texture coordinates

vn 0.000000 0.000000 1.000000
# 1 normals

g Plane03
s 1
f 1/1/1 5/2/1 6/3/1
f 1/1/1 6/3/1 2/4/1
f 6/3/1 7/5/1 3/6/1
f 6/3/1 3/6/1 2/4/1
f 3/6/1 7/5/1 8/7/1
f 3/6/1 8/7/1 4/8/1
f 9/9/1 10/10/1 6/3/1
f 9/9/1 6/3/1 5/2/1
f 6/3/1 10/10/1 11/11/1
f 6/3/1 11/11/1 7/5/1
f 11/11/1 12/12/1 8/7/1
f 11/11/1 8/7/1 7/5/1
f 9/9/1 13/13/1 14/14/1
f 9/9/1 14/14/1 10/10/1
f 14/14/1 15/15/1 11/11/1
f 14/14/1 11/11/1 10/10/1
f 11/11/1 15/15/1 16/16/1
f 11/11/1 16/16/1 12/12/1
f 17/17/1 18/18/1 14/14/1
f 17/17/1 14/14/1 13/13/1
f 14/14/1 18/18/1 19/19/1
f 14/14/1 19/19/1 15/15/1
f 19/19/1 20/20/1 16/16/1
f 19/19/1 16/16/1 15/15/1
f 17/17/1 21/21/1 22/22/1
f 17/17/1 22/22/1 18/18/1
f 22/22/1 23/23/1 19/19/1
f 22/22/1 19/19/1 18/18/1
f 19/19/1 23/23/1 24/24/1
f 19/19/1 24/24/1 20/20/1
# 30 triangles in group

# 30 triangles total

